<svg xmlns="http://www.w3.org/2000/svg" xmlns:xlink="http://www.w3.org/1999/xlink" version="1.1" x="0px" y="0px" viewBox="0 0 108.121 124.27625" enable-background="new 0 0 108.121 99.421" xml:space="preserve"><circle fill="#000000" cx="410.199" cy="350.688" r="5.742"/><circle fill="#000000" cx="410.199" cy="365.103" r="6.919"/><polyline fill="#000000" points="403.279,365.103 403.279,388.627 417.118,388.627 417.118,365.103 "/><g><circle fill="#000000" cx="387.805" cy="362.006" r="4.338"/><circle fill="#000000" cx="387.805" cy="372.896" r="5.228"/><polyline fill="#000000" points="382.577,372.896 382.577,388.627 393.032,388.627 393.032,372.896  "/></g><g><circle fill="#000000" cx="432.732" cy="361.962" r="4.337"/><circle fill="#000000" cx="432.732" cy="372.854" r="5.227"/><polyline fill="#000000" points="427.505,372.854 427.505,388.627 437.959,388.627 437.959,372.854  "/></g><g><circle fill="#000000" cx="393.146" cy="352.052" r="3.174"/><polyline fill="#000000" points="390.903,354.297 409.095,372.487 413.582,367.999 395.39,349.807  "/></g><g><circle fill="#000000" cx="427.443" cy="352.052" r="3.174"/><polyline fill="#000000" points="425.198,349.808 407.008,368 411.496,372.488 429.688,354.296  "/></g><path d="M92,19H16c-1.104,0-2,0.896-2,2v45c0,1.104,0.896,2,2,2h76c1.104,0,2-0.896,2-2V21C94,19.896,93.104,19,92,19z M90,60H18V23  h72V60z"/><rect x="45" y="66" width="18" height="12"/><rect x="38" y="76" width="32" height="3"/><g><path d="M46.324,50.387L31.583,43.84v-2.508l14.741-7.377v4.33l-9.04,4.126l9.04,3.674V50.387z"/><path d="M60.569,31.359l-7.947,21.915h-5.045l7.947-21.915H60.569z"/><path d="M61.677,46.085l9.041-3.674l-9.041-4.126v-4.33l14.741,7.377v2.508l-14.741,6.546V46.085z"/></g><text x="0" y="114.421" fill="#000000" font-size="5px" font-weight="bold" font-family="'Helvetica Neue', Helvetica, Arial-Unicode, Arial, Sans-serif"></text><text x="0" y="119.421" fill="#000000" font-size="5px" font-weight="bold" font-family="'Helvetica Neue', Helvetica, Arial-Unicode, Arial, Sans-serif"></text></svg>